# xmcd
#
# Track frame offsets: 
#        150
#        25041
#        40473
#        54965
#        86682
#        106957
#        134129
#        151277
#        173715
#        194492
#        214979
#        231837
#        245819
#        280639
#        320396
#        336322
#
# Disc length: 4653 seconds
#
# Revision: 2
# Processed by: cddbd v1.5.2PL0 Copyright (c) Steve Scherf et al.
# Submitted via: ExactAudioCopy v1.0b4
#
DISCID=e9122b10
DTITLE=Peter Green - The Perer Green Collection
DYEAR=2001
DGENRE=Blues Rock
TTITLE0=Last Train to San Antone
TTITLE1=What am I doing here
TTITLE2=Apostle
TTITLE3=Little Dreamer
TTITLE4=Loser two times
TTITLE5=The Clown
TTITLE6=In the skies
TTITLE7=Carry my love
TTITLE8=Just for you
TTITLE9=Six string guitar
TTITLE10=Corner of my mind
TTITLE11=Seven stars
TTITLE12=A fool no more
TTITLE13=White Sky
TTITLE14=Promised land
TTITLE15=Man of the world
EXTD=Fuel 2000 Records
EXTT0=
EXTT1=
EXTT2=
EXTT3=
EXTT4=
EXTT5=
EXTT6=
EXTT7=
EXTT8=
EXTT9=
EXTT10=
EXTT11=
EXTT12=
EXTT13=
EXTT14=
EXTT15=
PLAYORDER=
